# xmcd CD database file
#
# Track frame offsets:
#	150
#	20536
#	46130
#	66014
#	92433
#	117328
#	138083
#	150761
#	173680
#	202327
#
# Disc length: 2956 seconds
#
# Revision: 0
# Processed by: cddbd v1.4PL0 Copyright (c) Steve Scherf et al.
# Submitted via: CDex 1.50Beta7
#
DISCID=760b8a0a
DTITLE=Novecento - Featuring...
DYEAR=1900
DGENRE=Jazz
TTITLE0=Tell Me Something
TTITLE1=Living So Fast
TTITLE2=Let Me Breath
TTITLE3=Flying On The Sky
TTITLE4=After All
TTITLE5=Vision
TTITLE6=You Are So Beautifull
TTITLE7=Now That You've Gone
TTITLE8=Leaving Now
TTITLE9=Telle Me Something (instrumental version)
EXTD=
EXTT0=
EXTT1=
EXTT2=
EXTT3=
EXTT4=
EXTT5=
EXTT6=
EXTT7=
EXTT8=
EXTT9=
PLAYORDER=
